# xmcd
#
# Track frame offsets:
#	150
#	17191
#	54246
#	104362
#	151664
#	180213
#	200949
#	238701
#	275959
#	309003
#
# Disc length: 4371 seconds
#
# Revision: 1
# Processed by: cddbd v1.5.2PL0 Copyright (c) Steve Scherf et al.
# Submitted via: audiograbber 1.83.01
#
DISCID=7d11110a
DTITLE=Grateful Dead - 78-11-14A Boston Music Hall, Boston MA
DYEAR=1900
DGENRE=
TTITLE0=From The Heart Of Me
TTITLE1=Ship Of Fools
TTITLE2=Estimated Prophet
TTITLE3=Eyes Of The World
TTITLE4=Drums
TTITLE5=Space
TTITLE6=Wharf Rat
TTITLE7=Not Fade Away
TTITLE8=Going Down The Road Feeling Bad
TTITLE9=Johnny B Goode
EXTD=
EXTT0=
EXTT1=
EXTT2=
EXTT3=
EXTT4=
EXTT5=
EXTT6=
EXTT7=
EXTT8=
EXTT9=
PLAYORDER=
